/*************************************************
   Public Constants
 *************************************************/
#include "pitches.h"

int doremifa[] = {NOTE_C4, NOTE_D4, NOTE_E4, NOTE_F4, NOTE_F4, NOTE_F4, 
                  NOTE_C4, NOTE_D4, NOTE_C4, NOTE_D4, NOTE_D4, NOTE_D4,
                  NOTE_C4, NOTE_G4, NOTE_F4, NOTE_E4, NOTE_E4, NOTE_E4,
                  NOTE_C4, NOTE_D4, NOTE_E4, NOTE_F4, NOTE_F4, NOTE_F4,
                  NOTE_C4, NOTE_D4, NOTE_E4, NOTE_F4, NOTE_F4, NOTE_F4, -1};


int doremifa_d[] = {250, 250, 250, 250, 200, 200,
                    250, 250, 250, 250, 200, 200,
                    250, 250, 250, 250, 200, 200,
                    250, 250, 250, 250, 200, 200,
                    250, 250, 250, 250, 200, 200};

int tetris[] = {NOTE_E5, NOTE_B4, NOTE_C5, NOTE_D5, NOTE_C5, NOTE_B4, NOTE_A4,
                NOTE_A4, NOTE_C5, NOTE_E5, NOTE_D5, NOTE_C5, NOTE_B4, NOTE_B4,
                NOTE_C5, NOTE_D5, NOTE_E5, NOTE_C5, NOTE_A4, NOTE_A4, NOTE_D5,
                NOTE_F5, NOTE_A5, NOTE_G5, NOTE_F5, NOTE_E5, NOTE_C5, NOTE_E5,
                NOTE_D5, NOTE_C5, -1};

int tetris_d[] = {750, 250, 250, 500, 250, 250, 750,
                  250, 250, 500, 250, 250, 750, 250,
                  250, 500, 500, 500, 500, 1000, 700,
                  250, 750, 250, 250, 750, 250, 750,
                  250, 250, -1};

int fallen[] = {NOTE_FS5, NOTE_CS5, NOTE_FS5, NOTE_CS5, NOTE_FS5, NOTE_CS5, 
                NOTE_FS5, NOTE_CS5, NOTE_FS5, NOTE_CS5, NOTE_FS5, NOTE_CS5, 
                NOTE_B4, NOTE_A4, NOTE_CS5, NOTE_A4, NOTE_B4, NOTE_E5,
                NOTE_DS5, NOTE_E5, NOTE_FS5, NOTE_DS5, NOTE_B4, NOTE_FS5,
                NOTE_A4, NOTE_FS5, NOTE_A4, NOTE_FS5, NOTE_A4, NOTE_FS5, -1};
int fallen_d[] = {250, 250, 250, 250, 250, 250,
                  250, 250, 250, 250, 250, 250,
                  250, 250, 250, 250, 250, 250,
                  250, 250, 250, 250, 250, 250,
                  250, 250, 250, 250, 250, 250};

int mario[] = {NOTE_E5, NOTE_E5, NOTE_E5, NOTE_C5, NOTE_E5,
               NOTE_G5, NOTE_G4, NOTE_C5, NOTE_G4, NOTE_E4,
               NOTE_A4, NOTE_B4, NOTE_AS4, NOTE_A4, NOTE_G4,
               NOTE_E5, NOTE_G5, NOTE_A5, NOTE_F5, NOTE_G5,
               NOTE_E5, NOTE_C5, NOTE_D5, NOTE_B4, NOTE_G5,
               NOTE_FS5, NOTE_F5, NOTE_DS5, NOTE_E5, NOTE_E5, -1};
int mario_d[] = {250, 250, 250, 250, 250,
                 250, 250, 250, 250, 250,
                 250, 250, 250, 250, 250,
                 250, 250, 250, 250, 250,
                 250, 250, 250, 250, 250,
                 250, 250, 250, 250, 250};